<svg version="1.1" xmlns="http://www.w3.org/2000/svg" viewBox="-2319.126695072133 -1441.1520416259766 8873.750914203601 2344.7041076660157"><desc>Created with Snap</desc><defs></defs><g><g transform="matrix(22.774,0,0,22.774,-2296.8585,-1418.9123)"><g><path d="M74.265,60.41c0.964,2.929,1.401,5.966,1.261,9.015c2.584-0.989,5.013-2.49,7.095-4.572c0.244-0.244,0.41-0.527,0.637-0.78   c0.018-0.341,0.105-0.659,0.105-1.004c0-2.924-0.646-5.691-1.764-8.203C79.522,57.139,77.045,59.022,74.265,60.41z" fill="#00e6cf" style=""></path><path d="M54.863,81.605c2.509,1.112,5.276,1.759,8.2,1.759c0.349,0,0.664-0.085,1.004-0.103c0.253-0.227,0.541-0.393,0.781-0.637   c2.08-2.085,3.585-4.516,4.572-7.104c-3.049,0.14-6.086-0.292-9.01-1.257C59.022,77.049,57.137,79.528,54.863,81.605z" fill="#00e6cf" style=""></path><path d="M40.588,74.265c-2.925,0.965-5.965,1.396-9.013,1.257c0.988,2.588,2.49,5.023,4.573,7.104   c0.242,0.244,0.528,0.41,0.779,0.637c0.339,0.018,0.661,0.103,1.003,0.103c2.926,0,5.691-0.646,8.202-1.759   C43.861,79.528,41.976,77.049,40.588,74.265z" fill="#00e6cf" style=""></path><path d="M26.731,60.41c-2.781-1.388-5.26-3.271-7.337-5.545c-1.112,2.512-1.758,5.279-1.758,8.203c0,0.345,0.085,0.663,0.1,1.004   c0.229,0.253,0.395,0.536,0.639,0.78c2.082,2.082,4.515,3.583,7.098,4.572C25.333,66.376,25.767,63.339,26.731,60.41z" fill="#00e6cf" style=""></path><path d="M26.731,40.592c-0.964-2.929-1.398-5.966-1.259-9.016c-2.583,0.989-5.014,2.491-7.098,4.572   c-0.244,0.245-0.41,0.528-0.639,0.781c-0.015,0.341-0.1,0.659-0.1,1.004c0,2.924,0.646,5.69,1.76,8.205   C21.471,43.863,23.95,41.979,26.731,40.592z" fill="#00e6cf" style=""></path><path d="M46.132,19.397c-2.511-1.114-5.275-1.76-8.202-1.76c-0.342,0-0.664,0.084-1.003,0.102   c-0.251,0.228-0.537,0.393-0.779,0.638c-2.083,2.08-3.585,4.515-4.573,7.103c3.048-0.14,6.088,0.293,9.013,1.257   C41.976,23.952,43.861,21.475,46.132,19.397z" fill="#00e6cf" style=""></path><path d="M60.41,26.736c2.924-0.964,5.961-1.396,9.01-1.257c-0.99-2.588-2.492-5.017-4.572-7.103   c-0.24-0.245-0.528-0.41-0.781-0.638c-0.34-0.018-0.659-0.102-1.004-0.102c-2.924,0-5.691,0.646-8.2,1.76   C57.137,21.475,59.022,23.952,60.41,26.736z" fill="#00e6cf" style=""></path><path d="M82.621,36.148c-2.082-2.081-4.511-3.583-7.095-4.572c0.14,3.05-0.297,6.087-1.261,9.016   c2.78,1.388,5.257,3.271,7.334,5.547c1.117-2.515,1.764-5.281,1.764-8.205c0-0.345-0.088-0.663-0.105-1.004   C83.031,36.677,82.865,36.394,82.621,36.148z" fill="#00e6cf" style=""></path><path d="M58.228,63.068c0-0.166-0.048-0.319-0.052-0.484c-1.061-0.21-2.09-0.498-3.099-0.834c-0.462,0.921-0.89,1.851-1.469,2.719   c0.113,0.122,0.19,0.267,0.309,0.384c1.143,1.14,2.404,2.069,3.718,2.881C57.993,66.228,58.228,64.683,58.228,63.068z" fill="#00e6cf" style=""></path><path d="M43.362,67.733c1.313-0.812,2.574-1.741,3.715-2.881c0.12-0.117,0.199-0.262,0.312-0.384   c-0.581-0.868-1.008-1.798-1.471-2.719c-1.008,0.336-2.038,0.624-3.1,0.834c-0.002,0.165-0.048,0.318-0.048,0.484   C42.771,64.683,43.006,66.228,43.362,67.733z" fill="#00e6cf" style=""></path><path d="M36.148,53.922c-1.139,1.14-2.068,2.4-2.88,3.717c1.503,0.355,3.051,0.59,4.663,0.59c0.166,0,0.318-0.044,0.484-0.048   c0.209-1.06,0.495-2.094,0.833-3.102c-0.918-0.463-1.848-0.886-2.716-1.471C36.411,53.726,36.269,53.805,36.148,53.922z" fill="#00e6cf" style=""></path><path d="M38.415,42.821c-0.166-0.006-0.319-0.05-0.484-0.05c-1.612,0-3.159,0.236-4.663,0.591c0.812,1.318,1.739,2.578,2.88,3.717   c0.12,0.118,0.262,0.196,0.384,0.314c0.868-0.583,1.797-1.008,2.716-1.471C38.91,44.916,38.625,43.881,38.415,42.821z" fill="#00e6cf" style=""></path><path d="M42.771,37.934c0,0.166,0.046,0.318,0.048,0.484c1.062,0.21,2.092,0.498,3.1,0.834c0.462-0.921,0.89-1.851,1.471-2.719   c-0.113-0.123-0.192-0.267-0.312-0.385c-1.141-1.139-2.402-2.066-3.715-2.879C43.006,34.774,42.771,36.319,42.771,37.934z" fill="#00e6cf" style=""></path><path d="M57.635,33.27c-1.314,0.812-2.575,1.74-3.718,2.879c-0.118,0.118-0.195,0.262-0.309,0.385   c0.579,0.868,1.007,1.798,1.469,2.719c1.008-0.336,2.038-0.624,3.099-0.834c0.004-0.166,0.052-0.318,0.052-0.484   C58.228,36.319,57.993,34.774,57.635,33.27z" fill="#00e6cf" style=""></path><path d="M63.063,42.771c-0.166,0-0.314,0.044-0.48,0.05c-0.209,1.06-0.498,2.095-0.838,3.102c0.921,0.463,1.851,0.888,2.719,1.471   c0.122-0.118,0.266-0.196,0.384-0.314c1.139-1.139,2.067-2.398,2.883-3.717C66.226,43.008,64.678,42.771,63.063,42.771z" fill="#00e6cf" style=""></path><path d="M48.074,49.493c-0.035,0.676-0.035,1.339,0,2.012c0.452,0.502,0.921,0.969,1.42,1.423c0.671,0.034,1.335,0.034,2.007,0   c0.5-0.454,0.972-0.926,1.423-1.423c0.035-0.673,0.033-1.336,0-2.008c-0.451-0.502-0.921-0.969-1.42-1.423   c-0.673-0.035-1.34-0.035-2.012,0C48.995,48.528,48.524,48.995,48.074,49.493z" fill="#00e6cf" style=""></path><path d="M64.464,53.608c-0.868,0.585-1.798,1.008-2.719,1.471c0.34,1.008,0.628,2.042,0.838,3.102   c0.166,0.004,0.314,0.048,0.48,0.048c1.615,0,3.163-0.234,4.668-0.59c-0.816-1.316-1.745-2.577-2.883-3.717   C64.73,53.805,64.586,53.726,64.464,53.608z" fill="#00e6cf" style=""></path><path d="M72.271,55.926c2.583-1.327,4.827-3.173,6.615-5.425c-1.788-2.252-4.031-4.098-6.615-5.425   c-1.091,1.929-2.357,3.784-3.998,5.425C69.914,52.142,71.179,53.996,72.271,55.926z" fill="#00e6cf" style=""></path><path d="M62.138,31.245c0.585,2.133,0.925,4.367,0.925,6.688c2.322,0,4.555,0.341,6.689,0.93c0.868-2.745,1.143-5.603,0.82-8.436   C67.74,30.104,64.879,30.375,62.138,31.245z" fill="#00e6cf" style=""></path><path d="M50.498,22.11c-2.253,1.794-4.099,4.033-5.424,6.616c1.927,1.096,3.782,2.361,5.424,4.002   c1.644-1.641,3.498-2.906,5.426-4.002C54.597,26.144,52.752,23.904,50.498,22.11z" fill="#00e6cf" style=""></path><path d="M37.931,37.934c0-2.321,0.34-4.556,0.927-6.688c-2.74-0.87-5.601-1.141-8.432-0.817c-0.323,2.833-0.05,5.69,0.817,8.436   C33.377,38.274,35.612,37.934,37.931,37.934z" fill="#00e6cf" style=""></path><path d="M22.108,50.501c1.794,2.252,4.034,4.098,6.618,5.425c1.091-1.93,2.356-3.784,3.999-5.425   c-1.643-1.641-2.908-3.496-4.001-5.425C26.143,46.403,23.902,48.249,22.108,50.501z" fill="#00e6cf" style=""></path><path d="M38.858,69.757c-0.587-2.133-0.927-4.367-0.927-6.688c-2.319,0-4.553-0.341-6.688-0.93   c-0.868,2.745-1.14,5.604-0.817,8.436C33.257,70.896,36.118,70.627,38.858,69.757z" fill="#00e6cf" style=""></path><path d="M50.498,78.891c2.255-1.793,4.1-4.032,5.426-6.616c-1.929-1.095-3.782-2.36-5.426-4c-1.642,1.64-3.497,2.905-5.424,4   C46.401,74.858,48.245,77.098,50.498,78.891z" fill="#00e6cf" style=""></path><path d="M63.063,63.068c0,2.321-0.34,4.556-0.925,6.688c2.741,0.87,5.602,1.139,8.435,0.817c0.323-2.832,0.048-5.695-0.82-8.436   C67.618,62.728,65.385,63.068,63.063,63.068z" fill="#00e6cf" style=""></path><path d="M87.425,44.026c-0.571,2.304-1.457,4.476-2.614,6.475c1.157,1.999,2.043,4.177,2.614,6.475   C88.844,52.771,88.844,48.231,87.425,44.026z" fill="#00e6cf" style=""></path><path d="M81.233,29.05c-1.981-4.041-5.244-7.301-9.286-9.282c1.249,2.063,2.147,4.268,2.745,6.541   C76.966,26.907,79.165,27.802,81.233,29.05z" fill="#00e6cf" style=""></path><path d="M56.971,13.576c-4.204-1.418-8.742-1.418-12.947,0c2.3,0.571,4.473,1.453,6.473,2.614   C52.5,15.029,54.671,14.147,56.971,13.576z" fill="#00e6cf" style=""></path><path d="M29.047,19.768c-4.042,1.981-7.301,5.241-9.284,9.282c2.066-1.248,4.268-2.143,6.541-2.741   C26.904,24.035,27.798,21.831,29.047,19.768z" fill="#00e6cf" style=""></path><path d="M13.571,56.973c0.574-2.3,1.458-4.473,2.616-6.472c-1.159-1.999-2.04-4.171-2.616-6.472   C12.158,48.231,12.158,52.771,13.571,56.973z" fill="#00e6cf" style=""></path><path d="M19.765,71.952c1.981,4.041,5.24,7.297,9.279,9.282c-1.248-2.068-2.141-4.269-2.741-6.542   C24.031,74.095,21.829,73.2,19.765,71.952z" fill="#00e6cf" style=""></path><path d="M44.024,87.426c4.205,1.418,8.746,1.418,12.947,0c-2.3-0.572-4.472-1.453-6.474-2.614   C48.498,85.973,46.324,86.854,44.024,87.426z" fill="#00e6cf" style=""></path><path d="M71.952,81.234c4.037-1.985,7.3-5.241,9.281-9.282c-2.068,1.248-4.267,2.143-6.541,2.74   C74.095,76.966,73.2,79.166,71.952,81.234z" fill="#00e6cf" style=""></path></g><desc>Created with Snap</desc><defs></defs></g><g><g transform="matrix(1.024,0,0,-1.024,0,0)"><path d="M130 585L130 52L283 52L386 194Q391 201 399 201Q408 201 413 196Q419 191 419 184Q419 178 415 170L342 16Q333 0 314 0L49 0Q25 0 25 26Q25 52 49 52L73 52L73 585L49 585Q25 585 25 611Q25 638 49 638L154 638Q179 638 179 611Q179 585 154 585L130 585ZM439 241Q439 349 500 418Q562 488 666 488Q771 488 832 419Q894 350 894 242Q894 135 833 64Q772 -6 665 -6Q559 -6 499 64Q439 134 439 241ZM544 99Q593 41 666 41Q739 41 788 98Q838 156 838 241Q838 326 788 383Q738 441 666 441Q594 441 544 384Q495 327 495 242Q495 157 544 99ZM1107 65Q1107 78 1115 86Q1123 94 1136 94Q1149 94 1157 86Q1165 79 1165 66Q1165 37 1139 13Q1114 -10 1076 -10Q1038 -10 1013 16Q988 43 988 82L988 428L945 428Q934 428 926 436Q919 444 919 454Q919 464 926 472Q934 480 945 480L969 480Q985 480 989 484Q993 489 993 503L993 557Q993 596 1033 596Q1045 596 1045 584L1045 480L1089 480Q1116 480 1116 453Q1116 443 1109 435Q1102 428 1089 428L1045 428L1045 83Q1045 36 1076 36Q1107 36 1107 65ZM1527 224L1527 428L1504 428Q1493 428 1485 436Q1478 444 1478 454Q1478 464 1485 472Q1493 480 1504 480L1605 480Q1629 480 1629 454Q1629 428 1605 428L1583 428L1583 52L1620 52Q1643 52 1643 26Q1643 14 1636 7Q1629 0 1620 0L1549 0Q1537 0 1532 4Q1528 9 1528 21L1528 86Q1471 -7 1378 -7Q1305 -7 1270 42Q1235 92 1235 157L1235 428L1213 428Q1202 428 1196 436Q1190 444 1190 454Q1190 464 1196 472Q1202 480 1213 480L1315 480Q1326 480 1333 472Q1340 464 1340 454Q1340 444 1333 436Q1326 428 1315 428L1291 428L1291 156Q1291 112 1314 76Q1337 40 1388 40Q1440 40 1483 92Q1527 144 1527 224ZM1768 401Q1768 365 1840 312L1873 287Q1901 267 1917 252Q1934 238 1952 205Q1971 173 1971 137Q1971 81 1934 35Q1898 -10 1832 -10Q1766 -10 1724 21Q1683 53 1683 102Q1683 132 1699 153Q1715 175 1733 175Q1751 175 1760 163Q1770 152 1770 134Q1770 98 1746 80Q1748 60 1771 46Q1795 32 1833 32Q1872 32 1896 60Q1920 88 1920 119Q1920 151 1905 174Q1890 197 1875 209Q1860 221 1827 245L1809 258Q1761 292 1737 320Q1713 349 1713 390Q1713 432 1743 460Q1773 488 1817 488Q1861 488 1896 463Q1931 438 1931 401Q1931 384 1922 372Q1914 361 1898 361Q1882 361 1866 379Q1851 398 1851 414Q1851 431 1856 443Q1847 450 1820 450Q1794 450 1781 434Q1768 419 1768 401ZM2366 429L2366 52L2588 52L2691 152Q2698 159 2706 159Q2727 159 2727 141Q2727 135 2721 125L2649 13Q2641 0 2622 0L2285 0Q2261 0 2261 26Q2261 52 2285 52L2309 52L2309 585L2285 585Q2261 585 2261 611Q2261 638 2285 638L2522 638Q2541 638 2551 628L2614 555Q2621 547 2621 539Q2621 531 2615 525Q2610 520 2600 520Q2590 520 2582 528L2511 590L2366 590L2366 477L2471 477Q2465 486 2465 496Q2465 506 2472 513Q2480 521 2493 521Q2506 521 2513 510L2556 439Q2560 432 2560 424Q2560 416 2554 409Q2549 403 2538 403Q2528 403 2520 414L2507 429L2366 429ZM2944 215L2771 215Q2747 215 2747 241Q2747 268 2771 268L2944 268Q2956 268 2962 260Q2969 253 2969 242Q2969 215 2944 215ZM3070 52L3070 585L3038 585Q3026 585 3019 592Q3012 600 3012 611Q3012 623 3019 630Q3026 637 3038 637L3095 637Q3112 637 3119 631Q3126 625 3126 609L3126 52L3151 52Q3163 52 3169 44Q3176 36 3176 26Q3176 0 3151 0L3045 0Q3034 0 3027 7Q3020 15 3020 25Q3020 36 3027 44Q3034 52 3045 52L3070 52ZM3530 332Q3526 372 3494 409Q3462 446 3414 446Q3367 446 3336 411Q3305 376 3293 332L3530 332ZM3425 -10Q3334 -10 3279 61Q3224 132 3224 242Q3224 352 3276 421Q3329 490 3415 490Q3459 490 3494 470Q3529 451 3548 422Q3588 363 3588 310Q3588 282 3562 282L3282 282Q3280 269 3280 245Q3280 153 3321 94Q3363 35 3425 35Q3452 35 3474 49Q3496 64 3505 77Q3514 91 3525 114Q3537 137 3557 137Q3587 137 3587 110Q3587 75 3542 32Q3498 -10 3425 -10ZM3776 492Q3862 492 3909 436Q3957 380 3957 293Q3957 155 3967 106Q3977 58 4005 38Q4022 30 4022 16Q4022 -10 3998 -10Q3974 -10 3952 12Q3931 35 3918 68Q3901 35 3863 12Q3826 -10 3774 -10Q3698 -10 3650 37Q3603 85 3603 158Q3603 232 3653 284Q3703 336 3777 336Q3852 336 3902 287Q3902 357 3872 404Q3842 452 3780 452Q3718 452 3702 418Q3711 397 3711 383Q3711 369 3699 353Q3687 337 3669 337Q3652 337 3642 352Q3632 367 3632 387Q3632 429 3673 460Q3715 492 3776 492ZM3658 163Q3658 108 3695 71Q3732 34 3783 34Q3835 34 3870 69Q3905 105 3905 156L3905 165Q3905 219 3869 254Q3833 289 3780 289Q3728 289 3693 253Q3658 218 3658 163ZM4282 435L4150 435L4150 52L4169 52Q4181 52 4187 44Q4194 37 4194 26Q4194 0 4169 0L4074 0Q4048 0 4048 26Q4048 52 4074 52L4094 52L4094 428L4074 428Q4061 428 4054 436Q4047 444 4047 454Q4047 465 4054 472Q4061 480 4074 480L4259 480Q4310 480 4336 458Q4362 437 4362 404Q4362 387 4354 373Q4346 360 4328 360Q4310 360 4295 376Q4281 393 4280 411Q4280 430 4282 435ZM4512 255L4512 52L4541 52Q4552 52 4559 44Q4566 36 4566 26Q4566 16 4559 8Q4552 0 4541 0L4424 0Q4413 0 4406 7Q4400 15 4400 25Q4400 36 4406 44Q4413 52 4424 52L4456 52L4456 428L4415 428Q4404 428 4398 435Q4392 443 4392 455Q4392 467 4399 473Q4407 480 4415 480L4492 480Q4503 480 4507 476Q4511 472 4511 461L4511 386Q4538 431 4580 459Q4622 487 4668 487Q4744 487 4776 441Q4808 396 4808 329L4808 52L4836 52Q4847 52 4854 44Q4861 36 4861 26Q4861 16 4854 8Q4847 0 4836 0L4728 0Q4704 0 4704 26Q4704 52 4728 52L4752 52L4752 334Q4752 440 4667 440Q4610 440 4561 387Q4512 334 4512 255ZM4966 53L4966 429L4940 429Q4928 429 4921 436Q4914 444 4914 454Q4914 480 4940 480L4990 480Q5021 480 5022 453L5022 52L5047 52Q5059 52 5065 44Q5072 36 5072 26Q5072 0 5047 0L4941 0Q4931 0 4923 7Q4916 15 4916 25Q4916 35 4923 43Q4931 52 4941 52L4966 53ZM4981 635Q5001 635 5014 622Q5028 609 5028 590Q5028 572 5014 559Q5001 546 4981 546Q4962 546 4948 559Q4935 572 4935 590Q4935 609 4948 622Q4961 635 4981 635ZM5245 255L5245 52L5274 52Q5285 52 5292 44Q5299 36 5299 26Q5299 16 5292 8Q5285 0 5274 0L5157 0Q5146 0 5139 7Q5133 15 5133 25Q5133 36 5139 44Q5146 52 5157 52L5189 52L5189 428L5148 428Q5137 428 5131 435Q5125 443 5125 455Q5125 467 5132 473Q5140 480 5148 480L5225 480Q5236 480 5240 476Q5244 472 5244 461L5244 386Q5271 431 5313 459Q5355 487 5401 487Q5477 487 5509 441Q5541 396 5541 329L5541 52L5569 52Q5580 52 5587 44Q5594 36 5594 26Q5594 16 5587 8Q5580 0 5569 0L5461 0Q5437 0 5437 26Q5437 52 5461 52L5485 52L5485 334Q5485 440 5400 440Q5343 440 5294 387Q5245 334 5245 255ZM5844 0Q5846 -33 5865 -53Q5885 -72 5913 -72Q5941 -72 5953 -60Q5966 -48 5966 -30Q5966 4 5909 4Q5876 4 5844 0ZM5859 155Q5927 155 5972 196Q6017 238 6017 300Q6017 362 5964 405Q5912 448 5846 448Q5781 448 5733 407Q5686 367 5686 303Q5686 240 5739 198Q5792 156 5859 155ZM6069 299Q6069 219 6006 165Q5944 112 5853 112Q5817 112 5784 122L5745 52L5919 52Q5970 52 5992 28Q6015 5 6015 -29Q6015 -62 5985 -88Q5955 -113 5907 -113Q5860 -113 5820 -78Q5780 -43 5778 0L5703 0Q5671 0 5671 22Q5671 29 5676 37L5737 140Q5692 162 5663 207Q5634 252 5634 305Q5634 383 5697 436Q5760 490 5851 490Q5893 490 5926 480L5963 540Q5992 588 6034 588Q6062 588 6081 567Q6101 546 6101 526Q6101 507 6092 497Q6083 488 6067 488Q6052 488 6035 503Q6018 518 6014 540L5966 463Q6013 436 6041 393Q6069 351 6069 299Z" fill="#165a3f" style=""></path></g></g></g></svg>