<svg version="1.1" xmlns="http://www.w3.org/2000/svg" viewBox="-2718.771425104816 -1064.960009765625 7252.019722033221 2961.40810546875"><desc>Created with Snap</desc><defs></defs><g><g transform="matrix(27.078,0,0,27.078,-2710.215,-926.6795)"><g><path d="M88.971,32.119c0-0.597-0.318-1.147-0.834-1.445s-1.15-0.296-1.666,0.002L54.269,49.268   c-1.713,0.989-2.769,2.816-2.769,4.795v37.185c0,0.595,0.317,1.145,0.833,1.442c0.515,0.298,1.15,0.299,1.667,0.001L84.971,74.81   c2.476-1.43,4-4.07,4-6.929V32.119z" fill="#a3003f" style=""></path><path d="M13.529,30.675c-0.516-0.297-1.15-0.298-1.666,0s-0.834,0.847-0.834,1.442c0,0,0,0.001,0,0.002v35.762   c0,2.858,1.525,5.499,4,6.929L46,92.69c0,0,0.001,0.001,0.002,0.001c0.516,0.298,1.151,0.297,1.667-0.001   c0.515-0.298,0.831-0.849,0.831-1.443V54.062c0-1.979-1.055-3.806-2.769-4.795L13.529,30.675z" fill="#a3003f" style=""></path><path d="M84.971,28.078c0.516-0.297,0.833-0.847,0.834-1.442c0-0.595-0.316-1.146-0.832-1.443c0,0-0.001-0.001-0.002-0.001L54,7.31   c-2.476-1.429-5.525-1.429-8,0L15.029,25.19c-0.001,0-0.002,0.001-0.002,0.001c-0.516,0.298-0.833,0.849-0.833,1.444   c0.001,0.596,0.319,1.144,0.835,1.442L47.231,46.67c1.713,0.989,3.824,0.989,5.537,0L84.971,28.078z" fill="#a3003f" style=""></path></g><desc>Created with Snap</desc><defs></defs></g><g><g transform="matrix(1.024,0,0,-1.024,0,0)"><path d="M559 -250Q514 -250 470 -225Q427 -199 360 -146Q310 -106 274 -82Q239 -57 197 -40Q156 -23 113 -23Q98 -23 90 -24L239 669Q172 642 135 586Q99 531 99 451Q99 414 106 399Q113 385 113 383Q59 383 32 405Q6 428 6 480Q6 544 58 604Q111 665 193 702Q275 740 357 740Q371 740 397 738L243 20Q271 13 300 -1Q330 -14 372 -37Q437 -72 483 -91Q529 -109 579 -109Q624 -109 663 -93Q655 -166 627 -208Q600 -250 559 -250ZM525 -4Q451 -4 408 34Q365 72 365 154Q365 222 393 305Q421 388 483 448Q545 509 639 509Q767 509 767 349L767 348Q770 347 778 347Q811 347 854 364Q897 382 932 407L941 380Q912 349 865 327Q819 306 764 297Q756 206 723 138Q690 70 638 33Q586 -4 525 -4ZM565 86Q589 86 613 113Q637 141 655 188Q673 236 681 294Q654 300 654 336Q654 377 685 390Q683 423 675 435Q667 448 647 448Q614 448 583 400Q552 352 533 285Q514 218 514 167Q514 119 525 102Q536 86 565 86ZM917 -6Q869 -6 839 24Q810 54 810 114Q810 139 818 179L878 460L845 460L853 500L886 500L916 638L1064 658L1030 500L1090 500L1082 460L1022 460L958 160Q954 145 954 128Q954 108 963 99Q973 91 995 91Q1024 91 1049 115Q1074 140 1085 179L1127 179Q1090 71 1032 32Q974 -6 917 -6ZM1184 -6Q1136 -6 1106 24Q1077 54 1077 114Q1077 139 1085 179L1153 500L1297 500L1225 160Q1222 145 1222 132Q1222 91 1252 91Q1280 91 1300 114Q1320 138 1332 179L1400 500L1544 500L1472 160Q1468 145 1468 128Q1468 108 1477 99Q1487 91 1509 91Q1537 91 1557 115Q1578 139 1590 179L1632 179Q1595 71 1540 32Q1486 -6 1431 -6Q1388 -6 1362 18Q1337 42 1332 89Q1298 34 1260 14Q1223 -6 1184 -6ZM1704 -6Q1656 -6 1623 12Q1590 31 1574 60Q1558 90 1558 122Q1558 155 1573 179Q1589 204 1611 215Q1650 285 1679 356Q1708 428 1734 511L1882 531Q1887 403 1899 254Q1904 194 1904 167Q1904 144 1900 129Q1947 156 1972 179L2014 179Q1950 105 1861 54Q1832 23 1789 8Q1747 -6 1704 -6ZM1672 73Q1709 73 1734 95Q1759 117 1759 166Q1759 196 1753 250Q1743 364 1740 403Q1716 324 1659 214Q1682 202 1682 179Q1682 160 1669 145Q1657 130 1638 130Q1617 130 1611 143Q1611 107 1625 90Q1640 73 1672 73Z" fill="#424077" style=""></path></g></g><g transform="matrix(1,0,0,1,-1.024,1333.248)"><g transform="matrix(1.024,0,0,-1.024,0,0)"><path d="M191 -18Q100 -18 53 32Q7 82 7 158Q7 212 29 266Q52 321 94 362Q136 403 192 417Q161 439 146 470Q131 502 131 537Q131 589 159 639Q188 689 238 720Q289 752 350 752Q413 752 453 719Q493 686 493 627Q493 583 471 553Q449 523 419 523Q392 523 372 550Q390 556 403 583Q416 610 416 637Q416 666 400 679Q384 693 361 693Q332 693 308 672Q285 652 272 619Q259 587 259 552Q259 504 284 467Q309 431 360 418Q309 407 268 368Q227 329 204 277Q181 226 181 179Q181 134 204 106Q228 78 276 78Q326 78 380 105Q435 133 461 180L484 170Q445 84 364 33Q283 -18 191 -18ZM478 222L496 301L696 301L679 222L478 222ZM848 -6Q800 -6 770 24Q741 54 741 114Q741 139 749 179L856 680L1004 700L889 160Q885 145 885 128Q885 108 894 99Q904 91 926 91Q955 91 980 115Q1005 140 1016 179L1058 179Q1021 71 963 32Q905 -6 848 -6ZM1159 -6Q1085 -6 1044 32Q1003 71 1003 153Q1003 222 1030 305Q1057 388 1118 448Q1179 509 1273 509Q1383 509 1383 413Q1383 357 1351 310Q1319 263 1266 234Q1213 206 1153 202Q1151 172 1151 162Q1151 113 1168 95Q1185 78 1223 78Q1277 78 1315 103Q1354 128 1400 179L1434 179Q1323 -6 1159 -6ZM1161 250Q1198 252 1231 276Q1265 300 1285 337Q1306 374 1306 415Q1306 456 1281 456Q1245 456 1210 393Q1176 330 1161 250ZM1520 -6Q1463 -6 1425 33Q1387 72 1387 155Q1387 229 1416 310Q1446 392 1504 448Q1563 505 1644 505Q1685 505 1705 491Q1725 477 1725 454L1725 447L1736 500L1880 500L1808 160Q1804 145 1804 128Q1804 85 1845 85Q1873 85 1893 111Q1914 137 1926 179L1968 179Q1931 71 1876 32Q1822 -6 1767 -6Q1725 -6 1699 17Q1674 41 1669 86Q1640 45 1604 19Q1569 -6 1520 -6ZM1585 91Q1610 91 1634 114Q1659 138 1668 179L1716 405Q1716 418 1706 430Q1696 443 1675 443Q1635 443 1603 396Q1571 350 1553 284Q1535 219 1535 169Q1535 119 1549 105Q1564 91 1585 91ZM1888 0L1994 500L2138 500L2125 438Q2159 468 2186 484Q2214 500 2246 500Q2278 500 2296 478Q2315 456 2315 425Q2315 396 2296 374Q2277 352 2243 352Q2221 352 2213 362Q2206 373 2202 393Q2199 406 2196 412Q2193 418 2185 418Q2164 418 2149 409Q2135 401 2112 380L2032 0L1888 0ZM2663 -6Q2602 -6 2573 26Q2545 59 2545 107Q2545 128 2550 154Q2555 181 2560 206Q2566 231 2568 238Q2576 273 2583 307Q2590 341 2590 362Q2590 413 2554 413Q2528 413 2508 387Q2488 362 2476 321L2408 0L2264 0L2370 500L2514 500L2503 448Q2553 504 2620 504Q2671 504 2701 476Q2731 448 2731 391Q2731 362 2724 326Q2717 291 2704 240Q2696 209 2689 179Q2683 150 2683 133Q2683 113 2692 102Q2701 91 2723 91Q2753 91 2771 112Q2789 134 2807 179L2849 179Q2812 69 2763 31Q2715 -6 2663 -6ZM2974 554Q2941 554 2918 577Q2895 600 2895 633Q2895 666 2918 689Q2941 713 2974 713Q3007 713 3030 689Q3054 666 3054 633Q3054 600 3030 577Q3007 554 2974 554ZM2906 -6Q2858 -6 2828 24Q2799 54 2799 114Q2799 139 2807 179L2875 500L3019 500L2947 160Q2943 145 2943 128Q2943 108 2952 99Q2962 91 2984 91Q3013 91 3038 115Q3063 140 3074 179L3116 179Q3079 71 3021 32Q2963 -6 2906 -6ZM3435 -6Q3374 -6 3345 26Q3317 59 3317 107Q3317 128 3322 154Q3327 181 3332 206Q3338 231 3340 238Q3348 273 3355 307Q3362 341 3362 362Q3362 413 3326 413Q3300 413 3280 387Q3260 362 3248 321L3180 0L3036 0L3142 500L3286 500L3275 448Q3325 504 3392 504Q3443 504 3473 476Q3503 448 3503 391Q3503 362 3496 326Q3489 291 3476 240Q3468 209 3461 179Q3455 150 3455 133Q3455 113 3464 102Q3473 91 3495 91Q3525 91 3543 112Q3561 134 3579 179L3621 179Q3584 69 3535 31Q3487 -6 3435 -6ZM3756 -250Q3708 -250 3676 -225Q3644 -200 3644 -153Q3644 -96 3690 -62Q3736 -27 3807 -4L3819 49Q3768 -6 3699 -6Q3642 -6 3604 33Q3566 72 3566 155Q3566 229 3595 310Q3625 392 3683 448Q3742 505 3823 505Q3864 505 3884 491Q3904 477 3904 454L3904 448L3915 500L4059 500L3960 36Q4008 52 4037 84Q4066 116 4086 179L4128 179Q4101 90 4055 48Q4009 7 3951 -8L3936 -80Q3916 -177 3867 -214Q3818 -250 3756 -250ZM3764 91Q3787 91 3811 112Q3835 133 3844 169L3895 406Q3895 418 3885 430Q3875 443 3854 443Q3814 443 3782 396Q3750 350 3732 284Q3714 219 3714 169Q3714 119 3728 105Q3743 91 3764 91ZM3733 -172Q3750 -172 3766 -149Q3782 -126 3791 -83L3797 -54Q3699 -90 3699 -139Q3699 -152 3708 -162Q3717 -172 3733 -172Z" fill="#424077" style=""></path></g></g></g></svg>